<?xml version="1.0" encoding="UTF-8"?>
<!DOCTYPE svg PUBLIC "-//W3C//DTD SVG 1.1//EN" "http://www.w3.org/Graphics/SVG/1.1/DTD/svg11.dtd">
<!-- Creator: CorelDRAW 2021.5 -->
<svg xmlns="http://www.w3.org/2000/svg" xml:space="preserve" width="84.6666mm" height="33.8666mm" version="1.1" style="shape-rendering:geometricPrecision; text-rendering:geometricPrecision; image-rendering:optimizeQuality; fill-rule:evenodd; clip-rule:evenodd"
viewBox="0 0 8466.66 3386.66"
 xmlns:xlink="http://www.w3.org/1999/xlink"
 xmlns:xodm="http://www.corel.com/coreldraw/odm/2003">
 <defs>
  <style type="text/css">
   <![CDATA[
    .fil0 {fill:black;fill-rule:nonzero}
   ]]>
  </style>
 </defs>
 <g id="Layer_x0020_1">
  <metadata id="CorelCorpID_0Corel-Layer"/>
  <path class="fil0" d="M160.66 1123.77c-16.6,-26.05 -31.98,-61.6 -46.21,-106.59 -14.2,-45 -21.32,-92.39 -21.32,-142.11 0,-92.39 20.73,-158.71 62.19,-198.98 41.45,-40.27 95.33,-60.4 161.67,-60.4l1549.1 0c16.6,26.04 31.99,61.59 46.21,106.58 14.2,45.02 21.3,92.39 21.3,142.14 0,92.36 -20.71,158.68 -62.16,198.95 -41.46,40.27 -95.34,60.41 -161.68,60.41l-394.37 0 0 1641.49c-26.07,7.12 -66.93,14.22 -122.59,21.32 -55.66,7.12 -110.74,10.66 -165.21,10.66 -54.47,0 -102.46,-4.13 -143.89,-12.44 -41.46,-8.29 -76.39,-23.08 -104.83,-44.4 -28.43,-21.32 -49.75,-50.93 -63.95,-88.83 -14.22,-37.9 -21.32,-87.64 -21.32,-149.23l0 -1378.57 -532.94 0zm8023.81 1230.74c116.4,0 210.76,94.36 210.76,210.75 0,116.39 -94.36,210.75 -210.76,210.75 -116.39,0 -210.75,-94.36 -210.75,-210.75 0,-116.39 94.36,-210.75 210.75,-210.75zm-6083.88 -1276.93c23.7,-7.09 61,-14.22 111.93,-21.32 50.91,-7.1 103.62,-10.66 158.12,-10.66 52.09,0 98.87,3.56 140.32,10.66 41.46,7.1 76.39,21.32 104.81,42.65 28.45,21.32 50.34,50.33 65.75,87.04 15.39,36.71 23.08,84.68 23.08,143.89l0 763.91c0,97.11 23.7,166.4 71.07,207.85 47.37,41.46 116.06,62.17 206.07,62.17 54.5,0 98.9,-4.73 133.23,-14.2 34.36,-9.48 61,-18.95 79.95,-28.43l0 -1243.56c23.7,-7.09 61,-14.22 111.93,-21.32 50.93,-7.1 103.62,-10.66 158.11,-10.66 52.1,0 98.9,3.56 140.33,10.66 41.46,7.1 76.41,21.32 104.83,42.65 28.42,21.32 50.34,50.33 65.73,87.04 15.38,36.71 23.1,84.68 23.1,143.89l0 1080.13c0,118.44 -49.74,207.27 -149.23,266.48 -82.92,52.1 -181.81,91.78 -296.69,119.01 -114.87,27.26 -239.82,40.86 -374.85,40.86 -127.89,0 -245.73,-14.19 -353.5,-42.62 -107.78,-28.44 -200.76,-72.25 -278.93,-131.47 -78.16,-59.22 -138.57,-135.6 -181.19,-229.18 -42.65,-93.55 -63.97,-206.65 -63.97,-339.3l0 -1016.17zm3755.57 1389.24c-11.85,111.33 -44.43,196.6 -97.71,255.82 -53.31,59.22 -130.88,88.82 -232.74,88.82 -75.79,0 -143.3,-18.35 -202.52,-55.08 -59.22,-36.71 -123.16,-98.9 -191.85,-186.54l-351.75 -440.57 0 646.65c-26.07,4.75 -64.56,11.25 -115.49,19.54 -50.91,8.31 -102.44,12.44 -154.55,12.44 -52.1,0 -98.9,-3.56 -140.33,-10.66 -41.46,-7.1 -76.41,-21.32 -104.83,-42.62 -28.43,-21.32 -50.34,-50.34 -65.73,-87.07 -15.38,-36.71 -23.1,-84.67 -23.1,-143.89l0 -2057.21c26.07,-7.1 64.56,-14.79 115.49,-23.08 50.91,-8.28 102.43,-12.44 154.55,-12.44 52.1,0 98.9,3.56 140.33,10.66 41.46,7.1 76.41,21.33 104.83,42.62 28.42,21.33 50.34,50.34 65.73,87.07 15.38,36.71 23.1,84.68 23.1,143.9l0 937.99 611.11 -625.33c123.18,0 222.08,27.23 296.68,81.73 74.61,54.47 111.93,123.16 111.93,206.07 0,35.53 -5.93,68.1 -17.78,97.71 -11.83,29.61 -30.2,59.79 -55.07,90.59 -24.88,30.79 -56.84,63.37 -95.92,97.7 -39.09,34.36 -84.7,74.04 -136.79,119.04l-206.08 177.65 568.49 568.49zm259.36 -1389.24c23.69,-7.09 60.99,-14.22 111.93,-21.32 50.9,-7.1 103.62,-10.66 158.11,-10.66 52.09,0 98.87,3.56 140.33,10.66 41.46,7.1 76.38,21.32 104.81,42.65 28.44,21.32 50.33,50.33 65.74,87.04 15.39,36.71 23.08,84.68 23.08,143.89l0 763.91c0,97.11 23.7,166.4 71.07,207.85 47.37,41.46 116.06,62.17 206.08,62.17 54.49,0 98.89,-4.73 133.23,-14.2 34.35,-9.48 60.99,-18.95 79.94,-28.43l0 -1243.56c23.7,-7.09 61,-14.22 111.93,-21.32 50.93,-7.1 103.62,-10.66 158.12,-10.66 52.09,0 98.89,3.56 140.33,10.66 41.45,7.1 76.4,21.32 104.83,42.65 28.42,21.32 50.33,50.33 65.72,87.04 15.39,36.71 23.1,84.68 23.1,143.89l0 1080.13c0,118.44 -49.74,207.27 -149.23,266.48 -82.91,52.1 -181.81,91.78 -296.68,119.01 -114.88,27.26 -239.82,40.86 -374.86,40.86 -127.88,0 -245.73,-14.19 -353.5,-42.62 -107.78,-28.44 -200.76,-72.25 -278.92,-131.47 -78.17,-59.22 -138.58,-135.6 -181.2,-229.18 -42.64,-93.55 -63.96,-206.65 -63.96,-339.3l0 -1016.17z"/>
 </g>
</svg>
