<?xml version="1.0" encoding="UTF-8"?>
<!DOCTYPE svg PUBLIC "-//W3C//DTD SVG 1.1//EN" "http://www.w3.org/Graphics/SVG/1.1/DTD/svg11.dtd">
<!-- Creator: CorelDRAW 2021.5 -->
<svg xmlns="http://www.w3.org/2000/svg" xml:space="preserve" width="84.6666mm" height="84.6666mm" version="1.1" style="shape-rendering:geometricPrecision; text-rendering:geometricPrecision; image-rendering:optimizeQuality; fill-rule:evenodd; clip-rule:evenodd"
viewBox="0 0 8466.66 8466.66"
 xmlns:xlink="http://www.w3.org/1999/xlink"
 xmlns:xodm="http://www.corel.com/coreldraw/odm/2003">
 <defs>
  <style type="text/css">
   <![CDATA[
    .fil0 {fill:none}
    .fil1 {fill:black}
    .fil2 {fill:black;fill-rule:nonzero}
   ]]>
  </style>
 </defs>
 <g id="Layer_x0020_1">
  <metadata id="CorelCorpID_0Corel-Layer"/>
  <rect class="fil0" x="-0" y="-0.02" width="8466.67" height="8466.67"/>
  <g id="_2108504416592">
   <path class="fil1" d="M4204.09 2859.64c513.19,0 929.22,416.02 929.22,929.22 0,513.19 -416.03,929.22 -929.22,929.22 -513.2,0 -929.23,-416.03 -929.23,-929.22 0,-513.2 416.03,-929.22 929.23,-929.22z"/>
   <g>
    <path class="fil1" d="M4060.23 2541.07c-31.34,-384.12 -120.35,-702.52 -408.79,-1030.72 -570.72,-649.36 -1116.55,-525.55 -1685.73,-535.92 -220.25,-4 -1535.24,8.02 -1652.45,45.76 9.16,295.49 107.72,700.33 402.37,1038.15 341.83,391.87 737.03,499.82 1139.25,517.6l2205.35 -34.87z"/>
    <path class="fil1" d="M4347.96 2522.3c31.34,-384.12 120.35,-702.52 408.79,-1030.72 570.72,-649.36 1116.55,-525.55 1685.73,-535.92 220.25,-4.01 1535.24,8.02 1652.45,45.76 -9.16,295.49 -107.72,700.32 -402.37,1038.14 -341.83,391.87 -737.03,499.83 -1139.25,517.6l-2205.35 -34.86z"/>
   </g>
   <path class="fil2" d="M466.7 5915.59c-15.49,-24.32 -29.85,-57.5 -43.13,-99.5 -13.25,-42 -19.9,-86.24 -19.9,-132.65 0,-86.25 19.35,-148.15 58.05,-185.74 38.7,-37.59 88.99,-56.39 150.92,-56.39l1446.03 0c15.49,24.32 29.86,57.5 43.13,99.5 13.26,42.02 19.88,86.24 19.88,132.67 0,86.22 -19.32,148.13 -58.02,185.72 -38.7,37.59 -88.99,56.39 -150.92,56.39l-368.13 0 0 1532.27c-24.34,6.65 -62.48,13.28 -114.44,19.91 -51.95,6.65 -103.37,9.95 -154.22,9.95 -50.84,0 -95.64,-3.86 -134.31,-11.61 -38.7,-7.74 -71.31,-21.55 -97.86,-41.45 -26.53,-19.91 -46.43,-47.55 -59.69,-82.92 -13.28,-35.37 -19.9,-81.81 -19.9,-139.3l0 -1286.85 -497.49 0zm7489.97 1148.85c108.65,0 196.73,88.08 196.73,196.73 0,108.65 -88.08,196.73 -196.73,196.73 -108.65,0 -196.73,-88.08 -196.73,-196.73 0,-108.65 88.08,-196.73 196.73,-196.73zm-5679.1 -1191.96c22.12,-6.63 56.94,-13.28 104.48,-19.91 47.52,-6.62 96.73,-9.95 147.59,-9.95 48.63,0 92.3,3.33 131,9.95 38.7,6.63 71.3,19.91 97.83,39.81 26.55,19.9 46.99,46.99 61.37,81.26 14.37,34.26 21.55,79.03 21.55,134.31l0 713.08c0,90.65 22.12,155.33 66.34,194.03 44.21,38.7 108.34,58.02 192.36,58.02 50.87,0 92.32,-4.41 124.37,-13.25 32.07,-8.84 56.94,-17.69 74.62,-26.53l0 -1160.82c22.13,-6.63 56.95,-13.28 104.49,-19.91 47.54,-6.62 96.72,-9.95 147.59,-9.95 48.63,0 92.32,3.33 130.99,9.95 38.7,6.63 71.33,19.91 97.86,39.81 26.53,19.9 46.99,46.99 61.35,81.26 14.36,34.26 21.57,79.03 21.57,134.31l0 1008.27c0,110.55 -46.44,193.47 -139.31,248.75 -77.39,48.63 -169.71,85.66 -276.94,111.09 -107.23,25.44 -223.86,38.14 -349.91,38.14 -119.38,0 -229.38,-13.25 -329.99,-39.78 -100.6,-26.56 -187.4,-67.45 -260.36,-122.73 -72.97,-55.28 -129.36,-126.58 -169.14,-213.93 -39.81,-87.33 -59.71,-192.9 -59.71,-316.73l0 -948.55zm3505.69 1296.8c-11.06,103.93 -41.47,183.52 -91.21,238.8 -49.76,55.28 -122.17,82.92 -217.25,82.92 -70.75,0 -133.77,-17.14 -189.04,-51.43 -55.28,-34.26 -114.97,-92.31 -179.09,-174.12l-328.35 -411.26 0 603.63c-24.33,4.43 -60.26,10.5 -107.81,18.24 -47.52,7.75 -95.61,11.61 -144.26,11.61 -48.63,0 -92.32,-3.32 -131,-9.95 -38.7,-6.63 -71.32,-19.9 -97.85,-39.79 -26.53,-19.9 -46.99,-46.98 -61.35,-81.27 -14.37,-34.27 -21.57,-79.04 -21.57,-134.32l0 -1920.33c24.34,-6.63 60.26,-13.81 107.81,-21.55 47.52,-7.73 95.61,-11.61 144.27,-11.61 48.62,0 92.31,3.32 130.99,9.95 38.7,6.63 71.32,19.9 97.85,39.79 26.54,19.9 46.99,46.98 61.36,81.27 14.36,34.27 21.56,79.04 21.56,134.32l0 875.59 570.45 -583.73c114.99,0 207.3,25.43 276.95,76.29 69.64,50.85 104.48,114.97 104.48,192.37 0,33.16 -5.54,63.57 -16.6,91.21 -11.04,27.63 -28.2,55.81 -51.4,84.55 -23.23,28.75 -53.06,59.16 -89.55,91.21 -36.48,32.07 -79.06,69.11 -127.69,111.11l-192.36 165.84 530.66 530.66zm242.1 -1296.8c22.12,-6.63 56.94,-13.28 104.49,-19.91 47.52,-6.62 96.72,-9.95 147.59,-9.95 48.63,0 92.29,3.33 130.99,9.95 38.7,6.63 71.31,19.91 97.84,39.81 26.55,19.9 46.99,46.99 61.37,81.26 14.36,34.26 21.54,79.03 21.54,134.31l0 713.08c0,90.65 22.12,155.33 66.34,194.03 44.22,38.7 108.34,58.02 192.37,58.02 50.87,0 92.31,-4.41 124.36,-13.25 32.08,-8.84 56.94,-17.69 74.63,-26.53l0 -1160.82c22.12,-6.63 56.94,-13.28 104.48,-19.91 47.55,-6.62 96.73,-9.95 147.6,-9.95 48.63,0 92.31,3.33 130.99,9.95 38.7,6.63 71.33,19.91 97.86,39.81 26.53,19.9 46.99,46.99 61.35,81.26 14.36,34.26 21.56,79.03 21.56,134.31l0 1008.27c0,110.55 -46.43,193.47 -139.3,248.75 -77.4,48.63 -169.71,85.66 -276.95,111.09 -107.23,25.44 -223.86,38.14 -349.91,38.14 -119.37,0 -229.38,-13.25 -329.98,-39.78 -100.61,-26.56 -187.4,-67.45 -260.37,-122.73 -72.96,-55.28 -129.35,-126.58 -169.14,-213.93 -39.8,-87.33 -59.71,-192.9 -59.71,-316.73l0 -948.55z"/>
  </g>
 </g>
</svg>
